<?xml version="1.0" encoding="UTF-8" standalone="no"?>
<!DOCTYPE svg PUBLIC "-//W3C//DTD SVG 1.1//EN"
 "http://www.w3.org/Graphics/SVG/1.1/DTD/svg11.dtd">
<!-- Generated by graphviz version 2.40.1 (0)
 -->
<!-- Title: deps Pages: 1 -->
<svg width="1963pt" height="260pt"
 viewBox="0.00 0.00 1962.96 260.00" xmlns="http://www.w3.org/2000/svg" xmlns:xlink="http://www.w3.org/1999/xlink">
<g id="graph0" class="graph" transform="scale(1 1) rotate(0) translate(4 256)">
<title>deps</title>
<polygon fill="#ffffff" stroke="transparent" points="-4,4 -4,-256 1958.9646,-256 1958.9646,4 -4,4"/>
<!-- domain&#45;objects -->
<g id="node1" class="node">
<title>domain&#45;objects</title>
<ellipse fill="none" stroke="#000000" cx="1284.7484" cy="-18" rx="66.8882" ry="18"/>
<text text-anchor="middle" x="1284.7484" y="-14.3" font-family="Times,serif" font-size="14.00" fill="#000000">domain&#45;objects</text>
</g>
<!-- effects&#45;clock -->
<g id="node2" class="node">
<title>effects&#45;clock</title>
<ellipse fill="none" stroke="#000000" cx="244.7484" cy="-18" rx="57.6901" ry="18"/>
<text text-anchor="middle" x="244.7484" y="-14.3" font-family="Times,serif" font-size="14.00" fill="#000000">effects&#45;clock</text>
</g>
<!-- effects&#45;clock&#45;handlers&#45;io -->
<g id="node3" class="node">
<title>effects&#45;clock&#45;handlers&#45;io</title>
<ellipse fill="none" stroke="#000000" cx="359.7484" cy="-90" rx="101.2821" ry="18"/>
<text text-anchor="middle" x="359.7484" y="-86.3" font-family="Times,serif" font-size="14.00" fill="#000000">effects&#45;clock&#45;handlers&#45;io</text>
</g>
<!-- effects&#45;clock&#45;handlers&#45;io&#45;&gt;effects&#45;clock -->
<g id="edge1" class="edge">
<title>effects&#45;clock&#45;handlers&#45;io&#45;&gt;effects&#45;clock</title>
<path fill="none" stroke="#000000" d="M331.9101,-72.5708C316.0602,-62.6474 296.0697,-50.1316 279.2325,-39.5901"/>
<polygon fill="#000000" stroke="#000000" points="281.087,-36.6218 270.7538,-34.2817 277.3724,-42.5549 281.087,-36.6218"/>
</g>
<!-- effects&#45;io -->
<g id="node5" class="node">
<title>effects&#45;io</title>
<ellipse fill="none" stroke="#000000" cx="524.7484" cy="-18" rx="44.6926" ry="18"/>
<text text-anchor="middle" x="524.7484" y="-14.3" font-family="Times,serif" font-size="14.00" fill="#000000">effects&#45;io</text>
</g>
<!-- effects&#45;clock&#45;handlers&#45;io&#45;&gt;effects&#45;io -->
<g id="edge2" class="edge">
<title>effects&#45;clock&#45;handlers&#45;io&#45;&gt;effects&#45;io</title>
<path fill="none" stroke="#000000" d="M398.0174,-73.3008C424.0473,-61.9423 458.4176,-46.9443 484.797,-35.4333"/>
<polygon fill="#000000" stroke="#000000" points="486.3584,-38.5708 494.1239,-31.3634 483.5587,-32.155 486.3584,-38.5708"/>
</g>
<!-- effects&#45;clock&#45;handlers&#45;pure -->
<g id="node4" class="node">
<title>effects&#45;clock&#45;handlers&#45;pure</title>
<ellipse fill="none" stroke="#000000" cx="129.7484" cy="-90" rx="110.4804" ry="18"/>
<text text-anchor="middle" x="129.7484" y="-86.3" font-family="Times,serif" font-size="14.00" fill="#000000">effects&#45;clock&#45;handlers&#45;pure</text>
</g>
<!-- effects&#45;clock&#45;handlers&#45;pure&#45;&gt;effects&#45;clock -->
<g id="edge3" class="edge">
<title>effects&#45;clock&#45;handlers&#45;pure&#45;&gt;effects&#45;clock</title>
<path fill="none" stroke="#000000" d="M157.5867,-72.5708C173.4365,-62.6474 193.427,-50.1316 210.2642,-39.5901"/>
<polygon fill="#000000" stroke="#000000" points="212.1244,-42.5549 218.7429,-34.2817 208.4097,-36.6218 212.1244,-42.5549"/>
</g>
<!-- effects&#45;talent&#45;id&#45;generator -->
<g id="node6" class="node">
<title>effects&#45;talent&#45;id&#45;generator</title>
<ellipse fill="none" stroke="#000000" cx="1074.7484" cy="-90" rx="105.8812" ry="18"/>
<text text-anchor="middle" x="1074.7484" y="-86.3" font-family="Times,serif" font-size="14.00" fill="#000000">effects&#45;talent&#45;id&#45;generator</text>
</g>
<!-- effects&#45;talent&#45;id&#45;generator&#45;&gt;domain&#45;objects -->
<g id="edge4" class="edge">
<title>effects&#45;talent&#45;id&#45;generator&#45;&gt;domain&#45;objects</title>
<path fill="none" stroke="#000000" d="M1121.8765,-73.8418C1155.0055,-62.4833 1199.3123,-47.2924 1233.3501,-35.6223"/>
<polygon fill="#000000" stroke="#000000" points="1234.7848,-38.8304 1243.1091,-32.2763 1232.5145,-32.2088 1234.7848,-38.8304"/>
</g>
<!-- effects&#45;talent&#45;id&#45;generator&#45;handlers&#45;pure -->
<g id="node7" class="node">
<title>effects&#45;talent&#45;id&#45;generator&#45;handlers&#45;pure</title>
<ellipse fill="none" stroke="#000000" cx="944.7484" cy="-162" rx="158.6719" ry="18"/>
<text text-anchor="middle" x="944.7484" y="-158.3" font-family="Times,serif" font-size="14.00" fill="#000000">effects&#45;talent&#45;id&#45;generator&#45;handlers&#45;pure</text>
</g>
<!-- effects&#45;talent&#45;id&#45;generator&#45;handlers&#45;pure&#45;&gt;domain&#45;objects -->
<g id="edge5" class="edge">
<title>effects&#45;talent&#45;id&#45;generator&#45;handlers&#45;pure&#45;&gt;domain&#45;objects</title>
<path fill="none" stroke="#000000" d="M942.1425,-143.7108C940.3556,-123.3027 941.0381,-90.7009 959.7484,-72 993.7148,-38.0505 1122.9594,-25.4047 1207.8715,-20.7218"/>
<polygon fill="#000000" stroke="#000000" points="1208.1951,-24.2097 1217.9974,-20.1893 1207.8274,-17.2194 1208.1951,-24.2097"/>
</g>
<!-- effects&#45;talent&#45;id&#45;generator&#45;handlers&#45;pure&#45;&gt;effects&#45;talent&#45;id&#45;generator -->
<g id="edge6" class="edge">
<title>effects&#45;talent&#45;id&#45;generator&#45;handlers&#45;pure&#45;&gt;effects&#45;talent&#45;id&#45;generator</title>
<path fill="none" stroke="#000000" d="M976.8832,-144.2022C994.3294,-134.5397 1016.0621,-122.5031 1034.6132,-112.2287"/>
<polygon fill="#000000" stroke="#000000" points="1036.3796,-115.2514 1043.4318,-107.3446 1032.9881,-109.1279 1036.3796,-115.2514"/>
</g>
<!-- effects&#45;talent&#45;id&#45;generator&#45;handlers&#45;uuid&#45;v4 -->
<g id="node8" class="node">
<title>effects&#45;talent&#45;id&#45;generator&#45;handlers&#45;uuid&#45;v4</title>
<ellipse fill="none" stroke="#000000" cx="596.7484" cy="-162" rx="170.8697" ry="18"/>
<text text-anchor="middle" x="596.7484" y="-158.3" font-family="Times,serif" font-size="14.00" fill="#000000">effects&#45;talent&#45;id&#45;generator&#45;handlers&#45;uuid&#45;v4</text>
</g>
<!-- effects&#45;talent&#45;id&#45;generator&#45;handlers&#45;uuid&#45;v4&#45;&gt;domain&#45;objects -->
<g id="edge7" class="edge">
<title>effects&#45;talent&#45;id&#45;generator&#45;handlers&#45;uuid&#45;v4&#45;&gt;domain&#45;objects</title>
<path fill="none" stroke="#000000" d="M654.1089,-144.9763C721.7042,-125.3655 837.6343,-93.1368 938.7484,-72 1033.1884,-52.2583 1143.5021,-36.2414 1213.7176,-26.9175"/>
<polygon fill="#000000" stroke="#000000" points="1214.3231,-30.3681 1223.7797,-25.5908 1213.4079,-23.4282 1214.3231,-30.3681"/>
</g>
<!-- effects&#45;talent&#45;id&#45;generator&#45;handlers&#45;uuid&#45;v4&#45;&gt;effects&#45;io -->
<g id="edge8" class="edge">
<title>effects&#45;talent&#45;id&#45;generator&#45;handlers&#45;uuid&#45;v4&#45;&gt;effects&#45;io</title>
<path fill="none" stroke="#000000" d="M587.6295,-143.7623C575.1866,-118.8764 552.7895,-74.0822 538.3566,-45.2165"/>
<polygon fill="#000000" stroke="#000000" points="541.3959,-43.4686 533.7932,-36.0896 535.1349,-46.5992 541.3959,-43.4686"/>
</g>
<!-- effects&#45;talent&#45;id&#45;generator&#45;handlers&#45;uuid&#45;v4&#45;&gt;effects&#45;talent&#45;id&#45;generator -->
<g id="edge9" class="edge">
<title>effects&#45;talent&#45;id&#45;generator&#45;handlers&#45;uuid&#45;v4&#45;&gt;effects&#45;talent&#45;id&#45;generator</title>
<path fill="none" stroke="#000000" d="M694.9213,-147.2124C780.1615,-134.3729 902.5521,-115.9375 985.1676,-103.4933"/>
<polygon fill="#000000" stroke="#000000" points="985.9248,-106.9189 995.2919,-101.9683 984.8821,-99.9969 985.9248,-106.9189"/>
</g>
<!-- effects&#45;talent&#45;repository -->
<g id="node9" class="node">
<title>effects&#45;talent&#45;repository</title>
<ellipse fill="none" stroke="#000000" cx="1448.7484" cy="-90" rx="98.2828" ry="18"/>
<text text-anchor="middle" x="1448.7484" y="-86.3" font-family="Times,serif" font-size="14.00" fill="#000000">effects&#45;talent&#45;repository</text>
</g>
<!-- effects&#45;talent&#45;repository&#45;&gt;domain&#45;objects -->
<g id="edge10" class="edge">
<title>effects&#45;talent&#45;repository&#45;&gt;domain&#45;objects</title>
<path fill="none" stroke="#000000" d="M1410.7113,-73.3008C1386.379,-62.6183 1354.7142,-48.7167 1329.2202,-37.5242"/>
<polygon fill="#000000" stroke="#000000" points="1330.343,-34.1948 1319.7796,-33.3796 1327.529,-40.6043 1330.343,-34.1948"/>
</g>
<!-- effects&#45;talent&#45;repository&#45;handlers&#45;io&#45;ref -->
<g id="node10" class="node">
<title>effects&#45;talent&#45;repository&#45;handlers&#45;io&#45;ref</title>
<ellipse fill="none" stroke="#000000" cx="1422.7484" cy="-162" rx="155.1726" ry="18"/>
<text text-anchor="middle" x="1422.7484" y="-158.3" font-family="Times,serif" font-size="14.00" fill="#000000">effects&#45;talent&#45;repository&#45;handlers&#45;io&#45;ref</text>
</g>
<!-- effects&#45;talent&#45;repository&#45;handlers&#45;io&#45;ref&#45;&gt;domain&#45;objects -->
<g id="edge11" class="edge">
<title>effects&#45;talent&#45;repository&#45;handlers&#45;io&#45;ref&#45;&gt;domain&#45;objects</title>
<path fill="none" stroke="#000000" d="M1389.6607,-144.2792C1373.9824,-134.8538 1355.6842,-122.2662 1341.7484,-108 1323.6166,-89.4383 1308.239,-64.1907 1298.0426,-45.1603"/>
<polygon fill="#000000" stroke="#000000" points="1301.0526,-43.3626 1293.3299,-36.1094 1294.8438,-46.5955 1301.0526,-43.3626"/>
</g>
<!-- effects&#45;talent&#45;repository&#45;handlers&#45;io&#45;ref&#45;&gt;effects&#45;io -->
<g id="edge12" class="edge">
<title>effects&#45;talent&#45;repository&#45;handlers&#45;io&#45;ref&#45;&gt;effects&#45;io</title>
<path fill="none" stroke="#000000" d="M1385.6067,-144.4497C1332.5084,-119.4883 1239.442,-76.2631 1222.7484,-72 1101.3978,-41.01 723.0571,-24.9193 580.1533,-19.8233"/>
<polygon fill="#000000" stroke="#000000" points="579.9918,-16.3156 569.8748,-19.4614 579.7454,-23.3112 579.9918,-16.3156"/>
</g>
<!-- effects&#45;talent&#45;repository&#45;handlers&#45;io&#45;ref&#45;&gt;effects&#45;talent&#45;repository -->
<g id="edge13" class="edge">
<title>effects&#45;talent&#45;repository&#45;handlers&#45;io&#45;ref&#45;&gt;effects&#45;talent&#45;repository</title>
<path fill="none" stroke="#000000" d="M1429.3093,-143.8314C1432.1511,-135.9617 1435.5421,-126.5712 1438.6902,-117.8533"/>
<polygon fill="#000000" stroke="#000000" points="1441.9946,-119.0076 1442.0991,-108.4133 1435.4107,-116.63 1441.9946,-119.0076"/>
</g>
<!-- effects&#45;talent&#45;repository&#45;handlers&#45;pure -->
<g id="node11" class="node">
<title>effects&#45;talent&#45;repository&#45;handlers&#45;pure</title>
<ellipse fill="none" stroke="#000000" cx="1784.7484" cy="-162" rx="151.3732" ry="18"/>
<text text-anchor="middle" x="1784.7484" y="-158.3" font-family="Times,serif" font-size="14.00" fill="#000000">effects&#45;talent&#45;repository&#45;handlers&#45;pure</text>
</g>
<!-- effects&#45;talent&#45;repository&#45;handlers&#45;pure&#45;&gt;domain&#45;objects -->
<g id="edge14" class="edge">
<title>effects&#45;talent&#45;repository&#45;handlers&#45;pure&#45;&gt;domain&#45;objects</title>
<path fill="none" stroke="#000000" d="M1746.5828,-144.5739C1701.7105,-124.6589 1624.6067,-92.217 1555.7484,-72 1488.1481,-52.1524 1408.9231,-37.3055 1353.6578,-28.2536"/>
<polygon fill="#000000" stroke="#000000" points="1354.0562,-24.7726 1343.6256,-26.6309 1352.9385,-31.6828 1354.0562,-24.7726"/>
</g>
<!-- effects&#45;talent&#45;repository&#45;handlers&#45;pure&#45;&gt;effects&#45;talent&#45;repository -->
<g id="edge15" class="edge">
<title>effects&#45;talent&#45;repository&#45;handlers&#45;pure&#45;&gt;effects&#45;talent&#45;repository</title>
<path fill="none" stroke="#000000" d="M1711.0117,-146.1993C1655.0652,-134.2108 1578.4978,-117.8034 1522.5382,-105.8121"/>
<polygon fill="#000000" stroke="#000000" points="1523.2017,-102.3749 1512.6903,-103.7018 1521.7349,-109.2195 1523.2017,-102.3749"/>
</g>
<!-- server -->
<g id="node12" class="node">
<title>server</title>
<ellipse fill="none" stroke="#000000" cx="1131.7484" cy="-234" rx="33.2948" ry="18"/>
<text text-anchor="middle" x="1131.7484" y="-230.3" font-family="Times,serif" font-size="14.00" fill="#000000">server</text>
</g>
<!-- server&#45;&gt;domain&#45;objects -->
<g id="edge16" class="edge">
<title>server&#45;&gt;domain&#45;objects</title>
<path fill="none" stroke="#000000" d="M1164.9125,-233.0502C1314.1847,-228.6177 1917.6551,-208.9525 1944.7484,-180 2027.8656,-91.1789 1548.8624,-40.3387 1359.3782,-23.9215"/>
<polygon fill="#000000" stroke="#000000" points="1359.4812,-20.4176 1349.2187,-23.0503 1358.8831,-27.392 1359.4812,-20.4176"/>
</g>
<!-- server&#45;&gt;effects&#45;clock -->
<g id="edge17" class="edge">
<title>server&#45;&gt;effects&#45;clock</title>
<path fill="none" stroke="#000000" d="M1098.4601,-232.9627C919.943,-227.0529 81.4527,-194.7799 10.7484,-108 -37.7969,-48.4174 91.9466,-28.2111 177.1294,-21.4082"/>
<polygon fill="#000000" stroke="#000000" points="177.5729,-24.8848 187.2817,-20.6433 177.0469,-17.9046 177.5729,-24.8848"/>
</g>
<!-- server&#45;&gt;effects&#45;clock&#45;handlers&#45;io -->
<g id="edge18" class="edge">
<title>server&#45;&gt;effects&#45;clock&#45;handlers&#45;io</title>
<path fill="none" stroke="#000000" d="M1098.1509,-233.8295C959.8704,-232.828 439.3642,-226.0076 383.7484,-180 365.8164,-165.166 360.4612,-138.5677 359.2093,-118.12"/>
<polygon fill="#000000" stroke="#000000" points="362.7062,-117.964 358.8838,-108.0827 355.7099,-118.1909 362.7062,-117.964"/>
</g>
<!-- server&#45;&gt;effects&#45;io -->
<g id="edge19" class="edge">
<title>server&#45;&gt;effects&#45;io</title>
<path fill="none" stroke="#000000" d="M1098.5054,-232.7359C960.6778,-227.337 440.2374,-205.3299 416.7484,-180 405.869,-168.268 409.2598,-158.1393 416.7484,-144 430.076,-118.8358 450.1032,-128.6138 469.7484,-108 487.5803,-89.2889 502.4689,-63.85 512.2387,-44.791"/>
<polygon fill="#000000" stroke="#000000" points="515.4207,-46.2526 516.7417,-35.7405 509.1536,-43.1344 515.4207,-46.2526"/>
</g>
<!-- server&#45;&gt;effects&#45;talent&#45;id&#45;generator -->
<g id="edge20" class="edge">
<title>server&#45;&gt;effects&#45;talent&#45;id&#45;generator</title>
<path fill="none" stroke="#000000" d="M1130.081,-215.7557C1127.8807,-197.0929 1123.0118,-167.5734 1112.7484,-144 1108.4926,-134.2251 1102.3139,-124.4258 1096.1711,-115.9097"/>
<polygon fill="#000000" stroke="#000000" points="1098.9261,-113.75 1090.1128,-107.8699 1093.3356,-117.9626 1098.9261,-113.75"/>
</g>
<!-- server&#45;&gt;effects&#45;talent&#45;id&#45;generator&#45;handlers&#45;uuid&#45;v4 -->
<g id="edge21" class="edge">
<title>server&#45;&gt;effects&#45;talent&#45;id&#45;generator&#45;handlers&#45;uuid&#45;v4</title>
<path fill="none" stroke="#000000" d="M1099.4865,-229.6582C1024.6665,-219.589 836.2858,-194.2368 712.5651,-177.5865"/>
<polygon fill="#000000" stroke="#000000" points="712.6656,-174.0686 702.2881,-176.2035 711.7319,-181.0061 712.6656,-174.0686"/>
</g>
<!-- server&#45;&gt;effects&#45;talent&#45;repository -->
<g id="edge22" class="edge">
<title>server&#45;&gt;effects&#45;talent&#45;repository</title>
<path fill="none" stroke="#000000" d="M1164.97,-232.5561C1265.0885,-227.8676 1558.7484,-211.5195 1586.7484,-180 1614.8281,-148.3907 1564.4717,-123.2783 1516.8967,-107.6987"/>
<polygon fill="#000000" stroke="#000000" points="1517.7198,-104.2883 1507.1301,-104.6154 1515.6125,-110.9636 1517.7198,-104.2883"/>
</g>
<!-- server&#45;&gt;effects&#45;talent&#45;repository&#45;handlers&#45;io&#45;ref -->
<g id="edge23" class="edge">
<title>server&#45;&gt;effects&#45;talent&#45;repository&#45;handlers&#45;io&#45;ref</title>
<path fill="none" stroke="#000000" d="M1162.067,-226.4985C1205.4347,-215.7683 1286.5923,-195.6881 1346.8796,-180.7717"/>
<polygon fill="#000000" stroke="#000000" points="1347.8774,-184.1304 1356.744,-178.331 1346.1961,-177.3353 1347.8774,-184.1304"/>
</g>
<!-- use&#45;cases -->
<g id="node13" class="node">
<title>use&#45;cases</title>
<ellipse fill="none" stroke="#000000" cx="1204.7484" cy="-162" rx="44.6926" ry="18"/>
<text text-anchor="middle" x="1204.7484" y="-158.3" font-family="Times,serif" font-size="14.00" fill="#000000">use&#45;cases</text>
</g>
<!-- server&#45;&gt;use&#45;cases -->
<g id="edge24" class="edge">
<title>server&#45;&gt;use&#45;cases</title>
<path fill="none" stroke="#000000" d="M1147.9494,-218.0209C1157.5738,-208.5284 1169.959,-196.3128 1180.7066,-185.7124"/>
<polygon fill="#000000" stroke="#000000" points="1183.1696,-188.1991 1187.8316,-178.6851 1178.2541,-183.2153 1183.1696,-188.1991"/>
</g>
<!-- use&#45;cases&#45;&gt;domain&#45;objects -->
<g id="edge25" class="edge">
<title>use&#45;cases&#45;&gt;domain&#45;objects</title>
<path fill="none" stroke="#000000" d="M1214.5579,-144.3428C1228.3374,-119.5398 1253.5445,-74.167 1269.7036,-45.0806"/>
<polygon fill="#000000" stroke="#000000" points="1272.8092,-46.6973 1274.6062,-36.256 1266.6901,-43.2978 1272.8092,-46.6973"/>
</g>
<!-- use&#45;cases&#45;&gt;effects&#45;clock -->
<g id="edge26" class="edge">
<title>use&#45;cases&#45;&gt;effects&#45;clock</title>
<path fill="none" stroke="#000000" d="M1207.693,-143.683C1209.8683,-122.9312 1209.6173,-89.7039 1189.7484,-72 1159.8879,-45.3934 510.659,-38.588 470.7484,-36 416.818,-32.503 355.7255,-27.5792 310.6677,-23.765"/>
<polygon fill="#000000" stroke="#000000" points="310.7019,-20.2554 300.4412,-22.8952 310.1085,-27.2302 310.7019,-20.2554"/>
</g>
<!-- use&#45;cases&#45;&gt;effects&#45;talent&#45;id&#45;generator -->
<g id="edge27" class="edge">
<title>use&#45;cases&#45;&gt;effects&#45;talent&#45;id&#45;generator</title>
<path fill="none" stroke="#000000" d="M1178.1272,-147.256C1159.8796,-137.1496 1135.3449,-123.5611 1114.7563,-112.1583"/>
<polygon fill="#000000" stroke="#000000" points="1116.3523,-109.0412 1105.9086,-107.258 1112.9607,-115.1648 1116.3523,-109.0412"/>
</g>
<!-- use&#45;cases&#45;&gt;effects&#45;talent&#45;repository -->
<g id="edge28" class="edge">
<title>use&#45;cases&#45;&gt;effects&#45;talent&#45;repository</title>
<path fill="none" stroke="#000000" d="M1238.9536,-150.3413C1245.5074,-148.1804 1252.3273,-145.9815 1258.7484,-144 1300.0817,-131.2445 1346.8121,-117.9485 1383.5857,-107.7417"/>
<polygon fill="#000000" stroke="#000000" points="1384.9768,-110.9883 1393.6809,-104.9477 1383.1096,-104.2419 1384.9768,-110.9883"/>
</g>
</g>
</svg>
